Coordinates
version=1
nRows=32
nColumns=12
inDegrees=yes

Units are S.I. units (second, meters, Newtons, ...)
Angles are in degrees

endheader
time	SC_y	SC_z	SC_x	AC_y	AC_z	AC_x	GH_y	GH_z	GH_yy	EL_x	PS_y
       0.0              -34.49          32.88          21.17          48.18         -19.65          1.711          21.78          36.82          24.62          78.03          112.3
   0.03201              -34.49          32.88          21.18          48.18         -19.65          1.714          21.79          36.82          24.61          78.04          112.3
   0.06403              -34.49          32.88          21.18          48.18         -19.65          1.716           21.8          36.81           24.6          78.04          112.3
   0.09604              -34.49          32.87          21.19          48.18         -19.64          1.718          21.81          36.81          24.59          78.05          112.3
    0.1281              -34.49          32.87          21.19          48.18         -19.64          1.721          21.82           36.8          24.58          78.06          112.3
    0.1601              -34.49          32.87           21.2          48.18         -19.64          1.724          21.83           36.8          24.57          78.07          112.3
    0.1921              -34.49          32.86           21.2          48.18         -19.64          1.727          21.85          36.79          24.56          78.08          112.2
    0.2241              -34.49          32.86          21.21          48.18         -19.63           1.73          21.86          36.79          24.55          78.09          112.2
    0.2561              -34.49          32.85          21.21          48.18         -19.63          1.733          21.87          36.78          24.53           78.1          112.2
    0.2881              -34.48          32.85          21.22          48.17         -19.62          1.737          21.89          36.77          24.52          78.11          112.2
    0.3201              -34.48          32.84          21.23          48.17         -19.62          1.741          21.91          36.76          24.51          78.13          112.2
    0.3521              -34.48          32.84          21.23          48.17         -19.61          1.745          21.93          36.76          24.49          78.14          112.2
    0.3842              -34.48          32.83          21.24          48.17         -19.61           1.75          21.95          36.75          24.47          78.16          112.2
    0.4162              -34.48          32.82          21.25          48.17          -19.6          1.755          21.97          36.74          24.45          78.17          112.2
    0.4482              -34.48          32.82          21.26          48.17          -19.6           1.76          21.99          36.73          24.43          78.19          112.2
    0.4802              -34.48          32.81          21.27          48.17         -19.59          1.766          22.02          36.71          24.41          78.21          112.2
    0.5122              -34.48           32.8          21.28          48.17         -19.58          1.772          22.05           36.7          24.39          78.23          112.2
    0.5442              -34.48          32.79          21.29          48.17         -19.58          1.779          22.08          36.69          24.36          78.26          112.2
    0.5762              -34.48          32.78          21.31          48.16         -19.57          1.787          22.11          36.67          24.33          78.28          112.2
    0.6082              -34.48          32.77          21.32          48.16         -19.56          1.795          22.15          36.66           24.3          78.31          112.2
    0.6403              -34.48          32.76          21.34          48.16         -19.55          1.804          22.19          36.64          24.27          78.34          112.2
    0.6723              -34.48          32.75          21.35          48.16         -19.54          1.814          22.23          36.62          24.23          78.38          112.2
    0.7043              -34.48          32.73          21.37          48.16         -19.53          1.825          22.28           36.6          24.19          78.41          112.2
    0.7363              -34.48          32.71          21.39          48.15         -19.51          1.837          22.33          36.57          24.15          78.45          112.1
    0.7683              -34.48           32.7          21.42          48.15          -19.5          1.851          22.39          36.55           24.1           78.5          112.1
    0.8003              -34.47          32.68          21.44          48.15         -19.48          1.866          22.46          36.52          24.04          78.55          112.1
    0.8323              -34.47          32.65          21.47          48.14         -19.46          1.883          22.53          36.48          23.98          78.61          112.1
    0.8643              -34.47          32.63          21.51          48.14         -19.44          1.902          22.62          36.44           23.9          78.67          112.1
    0.8964              -34.47           32.6          21.54          48.14         -19.41          1.924          22.71           36.4          23.82          78.74          112.1
    0.9284              -34.47          32.57          21.59          48.13         -19.39          1.948          22.82          36.35          23.73          78.83          112.0
    0.9604              -34.47          32.53          21.63          48.13         -19.36          1.976          22.94           36.3          23.63          78.92          112.0
    0.9924              -34.46          32.49          21.69          48.12         -19.32          2.008          23.08          36.23          23.51          79.03          112.0
